<svg width="435" height="577" viewBox="0 0 435 577" fill="none" xmlns="http://www.w3.org/2000/svg">
<path d="M260 283.5L140 185H20" stroke="#F3F3F3"/>
<circle cx="249" cy="249" r="4" fill="#BC1A1A" fill-opacity="0.8"/>
<circle cx="263" cy="286" r="4" fill="#BC1A1A" fill-opacity="0.8"/>
<circle cx="234" cy="313" r="4" fill="#BC1A1A" fill-opacity="0.8"/>
<circle cx="252" cy="465" r="4" fill="#BC1A1A" fill-opacity="0.8"/>
<path d="M249 467.5L135.5 571.5H23" stroke="#F3F3F3"/>
<path d="M230.5 314.5L115 386H3" stroke="#F3F3F3"/>
<circle cx="18" cy="185" r="3" fill="#BC1A1A" fill-opacity="0.8"/>
<circle cx="21" cy="572" r="3" fill="#BC1A1A" fill-opacity="0.8"/>
<circle cx="3" cy="385" r="3" fill="#BC1A1A" fill-opacity="0.8"/>
<circle cx="31" cy="22" r="3" fill="#BC1A1A" fill-opacity="0.8"/>
<path d="M248.5 245L182.5 22H34" stroke="#F3F3F3"/>
<path d="M35.824 17V5.8H37.008V17H35.824ZM42.8281 17V6.824H38.8921V5.8H47.9481V6.824H44.0121V17H42.8281ZM47.4851 17L52.6051 5.8H53.7731L58.8931 17H57.6451L52.9411 6.488H53.4211L48.7171 17H47.4851ZM49.5011 14.008L49.8531 13.048H56.3651L56.7171 14.008H49.5011ZM60.7459 17V5.8H61.9299V15.976H68.2019V17H60.7459ZM71.6523 17V12.84L71.9243 13.576L67.1723 5.8H68.4363L72.6123 12.632H71.9403L76.1163 5.8H77.3003L72.5483 13.576L72.8203 12.84V17H71.6523ZM85.5 17V6.824H81.564V5.8H90.62V6.824H86.684V17H85.5ZM97.2513 17.096C96.4086 17.096 95.6246 16.9573 94.8993 16.68C94.1846 16.392 93.5606 15.992 93.0273 15.48C92.5046 14.9573 92.0939 14.3547 91.7953 13.672C91.5073 12.9787 91.3633 12.2213 91.3633 11.4C91.3633 10.5787 91.5073 9.82667 91.7953 9.144C92.0939 8.45067 92.5046 7.848 93.0273 7.336C93.5606 6.81333 94.1846 6.41333 94.8993 6.136C95.6139 5.848 96.3979 5.704 97.2513 5.704C98.0939 5.704 98.8726 5.848 99.5873 6.136C100.302 6.41333 100.921 6.808 101.443 7.32C101.977 7.832 102.387 8.43467 102.675 9.128C102.974 9.82133 103.123 10.5787 103.123 11.4C103.123 12.2213 102.974 12.9787 102.675 13.672C102.387 14.3653 101.977 14.968 101.443 15.48C100.921 15.992 100.302 16.392 99.5873 16.68C98.8726 16.9573 98.0939 17.096 97.2513 17.096ZM97.2513 16.04C97.9233 16.04 98.5419 15.928 99.1073 15.704C99.6833 15.4693 100.179 15.144 100.595 14.728C101.022 14.3013 101.353 13.8107 101.587 13.256C101.822 12.6907 101.939 12.072 101.939 11.4C101.939 10.728 101.822 10.1147 101.587 9.56C101.353 8.99467 101.022 8.504 100.595 8.088C100.179 7.66133 99.6833 7.336 99.1073 7.112C98.5419 6.87733 97.9233 6.76 97.2513 6.76C96.5793 6.76 95.9553 6.87733 95.3793 7.112C94.8033 7.336 94.3019 7.66133 93.8753 8.088C93.4593 8.504 93.1286 8.99467 92.8832 9.56C92.6486 10.1147 92.5312 10.728 92.5312 11.4C92.5312 12.0613 92.6486 12.6747 92.8832 13.24C93.1286 13.8053 93.4593 14.3013 93.8753 14.728C94.3019 15.144 94.8033 15.4693 95.3793 15.704C95.9553 15.928 96.5793 16.04 97.2513 16.04ZM105.777 17V5.8H106.753L111.873 14.536H111.361L116.433 5.8H117.409V17H116.273V7.576H116.545L111.873 15.576H111.313L106.609 7.576H106.913V17H105.777ZM119.266 17L124.386 5.8H125.554L130.674 17H129.426L124.722 6.488H125.202L120.498 17H119.266ZM121.282 14.008L121.634 13.048H128.146L128.498 14.008H121.282ZM134.141 17V6.824H130.205V5.8H139.261V6.824H135.325V17H134.141ZM145.892 17.096C145.049 17.096 144.265 16.9573 143.54 16.68C142.825 16.392 142.201 15.992 141.668 15.48C141.145 14.9573 140.735 14.3547 140.436 13.672C140.148 12.9787 140.004 12.2213 140.004 11.4C140.004 10.5787 140.148 9.82667 140.436 9.144C140.735 8.45067 141.145 7.848 141.668 7.336C142.201 6.81333 142.825 6.41333 143.54 6.136C144.255 5.848 145.039 5.704 145.892 5.704C146.735 5.704 147.513 5.848 148.228 6.136C148.943 6.41333 149.561 6.808 150.084 7.32C150.617 7.832 151.028 8.43467 151.316 9.128C151.615 9.82133 151.764 10.5787 151.764 11.4C151.764 12.2213 151.615 12.9787 151.316 13.672C151.028 14.3653 150.617 14.968 150.084 15.48C149.561 15.992 148.943 16.392 148.228 16.68C147.513 16.9573 146.735 17.096 145.892 17.096ZM145.892 16.04C146.564 16.04 147.183 15.928 147.748 15.704C148.324 15.4693 148.82 15.144 149.236 14.728C149.663 14.3013 149.993 13.8107 150.228 13.256C150.463 12.6907 150.58 12.072 150.58 11.4C150.58 10.728 150.463 10.1147 150.228 9.56C149.993 8.99467 149.663 8.504 149.236 8.088C148.82 7.66133 148.324 7.336 147.748 7.112C147.183 6.87733 146.564 6.76 145.892 6.76C145.22 6.76 144.596 6.87733 144.02 7.112C143.444 7.336 142.943 7.66133 142.516 8.088C142.1 8.504 141.769 8.99467 141.524 9.56C141.289 10.1147 141.172 10.728 141.172 11.4C141.172 12.0613 141.289 12.6747 141.524 13.24C141.769 13.8053 142.1 14.3013 142.516 14.728C142.943 15.144 143.444 15.4693 144.02 15.704C144.596 15.928 145.22 16.04 145.892 16.04ZM155.474 10.808H161.394V11.816H155.474V10.808ZM155.602 15.976H162.338V17H154.418V5.8H162.098V6.824H155.602V15.976ZM168.209 17.096C167.377 17.096 166.577 16.9627 165.809 16.696C165.052 16.4187 164.465 16.0667 164.049 15.64L164.513 14.728C164.908 15.112 165.436 15.4373 166.097 15.704C166.769 15.96 167.473 16.088 168.209 16.088C168.913 16.088 169.484 16.0027 169.921 15.832C170.369 15.6507 170.694 15.4107 170.897 15.112C171.11 14.8133 171.217 14.4827 171.217 14.12C171.217 13.6827 171.089 13.3307 170.833 13.064C170.588 12.7973 170.262 12.5893 169.857 12.44C169.452 12.28 169.004 12.1413 168.513 12.024C168.022 11.9067 167.532 11.784 167.041 11.656C166.55 11.5173 166.097 11.336 165.681 11.112C165.276 10.888 164.945 10.5947 164.689 10.232C164.444 9.85867 164.321 9.37333 164.321 8.776C164.321 8.22133 164.465 7.71467 164.753 7.256C165.052 6.78667 165.505 6.41333 166.113 6.136C166.721 5.848 167.5 5.704 168.449 5.704C169.078 5.704 169.702 5.79467 170.321 5.976C170.94 6.14667 171.473 6.38667 171.921 6.696L171.521 7.64C171.041 7.32 170.529 7.08533 169.985 6.936C169.452 6.78667 168.934 6.712 168.433 6.712C167.761 6.712 167.206 6.80267 166.769 6.984C166.332 7.16533 166.006 7.41067 165.793 7.72C165.59 8.01867 165.489 8.36 165.489 8.744C165.489 9.18133 165.612 9.53333 165.857 9.8C166.113 10.0667 166.444 10.2747 166.849 10.424C167.265 10.5733 167.718 10.7067 168.209 10.824C168.7 10.9413 169.185 11.0693 169.665 11.208C170.156 11.3467 170.604 11.528 171.009 11.752C171.425 11.9653 171.756 12.2533 172.001 12.616C172.257 12.9787 172.385 13.4533 172.385 14.04C172.385 14.584 172.236 15.0907 171.937 15.56C171.638 16.0187 171.18 16.392 170.561 16.68C169.953 16.9573 169.169 17.096 168.209 17.096Z" fill="#F3F3F3"/>
<path d="M23.88 174.224H29.8V175.248H23.88V174.224ZM24.008 180H22.824V168.8H30.504V169.824H24.008V180ZM32.949 180V168.8H37.141C38.0903 168.8 38.9063 168.955 39.589 169.264C40.2717 169.563 40.7943 170 41.157 170.576C41.5303 171.141 41.717 171.829 41.717 172.64C41.717 173.429 41.5303 174.112 41.157 174.688C40.7943 175.253 40.2717 175.691 39.589 176C38.9063 176.299 38.0903 176.448 37.141 176.448H33.605L34.133 175.904V180H32.949ZM40.597 180L37.717 175.936H38.997L41.893 180H40.597ZM34.133 176L33.605 175.44H37.109C38.229 175.44 39.077 175.195 39.653 174.704C40.2397 174.213 40.533 173.525 40.533 172.64C40.533 171.744 40.2397 171.051 39.653 170.56C39.077 170.069 38.229 169.824 37.109 169.824H33.605L34.133 169.264V176ZM45.5675 173.808H51.4875V174.816H45.5675V173.808ZM45.6955 178.976H52.4315V180H44.5115V168.8H52.1915V169.824H45.6955V178.976ZM58.3026 180.096C57.4706 180.096 56.6706 179.963 55.9026 179.696C55.1453 179.419 54.5586 179.067 54.1426 178.64L54.6066 177.728C55.0013 178.112 55.5293 178.437 56.1906 178.704C56.8626 178.96 57.5666 179.088 58.3026 179.088C59.0066 179.088 59.5773 179.003 60.0146 178.832C60.4626 178.651 60.788 178.411 60.9906 178.112C61.204 177.813 61.3106 177.483 61.3106 177.12C61.3106 176.683 61.1826 176.331 60.9266 176.064C60.6813 175.797 60.356 175.589 59.9506 175.44C59.5453 175.28 59.0973 175.141 58.6066 175.024C58.116 174.907 57.6253 174.784 57.1346 174.656C56.644 174.517 56.1906 174.336 55.7746 174.112C55.3693 173.888 55.0386 173.595 54.7826 173.232C54.5373 172.859 54.4146 172.373 54.4146 171.776C54.4146 171.221 54.5586 170.715 54.8466 170.256C55.1453 169.787 55.5986 169.413 56.2066 169.136C56.8146 168.848 57.5933 168.704 58.5426 168.704C59.172 168.704 59.796 168.795 60.4146 168.976C61.0333 169.147 61.5666 169.387 62.0146 169.696L61.6146 170.64C61.1346 170.32 60.6226 170.085 60.0786 169.936C59.5453 169.787 59.028 169.712 58.5266 169.712C57.8546 169.712 57.3 169.803 56.8626 169.984C56.4253 170.165 56.1 170.411 55.8866 170.72C55.684 171.019 55.5826 171.36 55.5826 171.744C55.5826 172.181 55.7053 172.533 55.9506 172.8C56.2066 173.067 56.5373 173.275 56.9426 173.424C57.3586 173.573 57.812 173.707 58.3026 173.824C58.7933 173.941 59.2786 174.069 59.7586 174.208C60.2493 174.347 60.6973 174.528 61.1026 174.752C61.5186 174.965 61.8493 175.253 62.0946 175.616C62.3506 175.979 62.4786 176.453 62.4786 177.04C62.4786 177.584 62.3293 178.091 62.0306 178.56C61.732 179.019 61.2733 179.392 60.6546 179.68C60.0466 179.957 59.2626 180.096 58.3026 180.096ZM73.2504 168.8H74.4184V180H73.2504V168.8ZM66.2424 180H65.0584V168.8H66.2424V180ZM73.3624 174.832H66.1144V173.792H73.3624V174.832ZM87.1735 180.096C86.3202 180.096 85.5308 179.957 84.8055 179.68C84.0908 179.392 83.4668 178.992 82.9335 178.48C82.4108 177.968 82.0002 177.365 81.7015 176.672C81.4135 175.979 81.2695 175.221 81.2695 174.4C81.2695 173.579 81.4135 172.821 81.7015 172.128C82.0002 171.435 82.4162 170.832 82.9495 170.32C83.4828 169.808 84.1068 169.413 84.8215 169.136C85.5468 168.848 86.3362 168.704 87.1895 168.704C88.0428 168.704 88.8215 168.837 89.5255 169.104C90.2402 169.371 90.8482 169.776 91.3495 170.32L90.6135 171.072C90.1442 170.603 89.6268 170.267 89.0615 170.064C88.4962 169.861 87.8882 169.76 87.2375 169.76C86.5442 169.76 85.9042 169.877 85.3175 170.112C84.7415 170.336 84.2348 170.661 83.7975 171.088C83.3708 171.504 83.0348 171.995 82.7895 172.56C82.5548 173.115 82.4375 173.728 82.4375 174.4C82.4375 175.061 82.5548 175.675 82.7895 176.24C83.0348 176.805 83.3708 177.301 83.7975 177.728C84.2348 178.144 84.7415 178.469 85.3175 178.704C85.9042 178.928 86.5388 179.04 87.2215 179.04C87.8615 179.04 88.4642 178.944 89.0295 178.752C89.6055 178.56 90.1335 178.235 90.6135 177.776L91.2855 178.672C90.7522 179.141 90.1282 179.499 89.4135 179.744C88.6988 179.979 87.9522 180.096 87.1735 180.096ZM90.1495 178.528V174.4H91.2855V178.672L90.1495 178.528ZM92.8445 180L97.9645 168.8H99.1325L104.253 180H103.005L98.3005 169.488H98.7805L94.0765 180H92.8445ZM94.8605 177.008L95.2125 176.048H101.725L102.077 177.008H94.8605ZM106.105 180V168.8H110.297C111.247 168.8 112.063 168.955 112.745 169.264C113.428 169.563 113.951 170 114.313 170.576C114.687 171.141 114.873 171.829 114.873 172.64C114.873 173.429 114.687 174.112 114.313 174.688C113.951 175.253 113.428 175.691 112.745 176C112.063 176.299 111.247 176.448 110.297 176.448H106.761L107.289 175.904V180H106.105ZM113.753 180L110.873 175.936H112.153L115.049 180H113.753ZM107.289 176L106.761 175.44H110.265C111.385 175.44 112.233 175.195 112.809 174.704C113.396 174.213 113.689 173.525 113.689 172.64C113.689 171.744 113.396 171.051 112.809 170.56C112.233 170.069 111.385 169.824 110.265 169.824H106.761L107.289 169.264V176ZM117.668 180V168.8H118.852V178.976H125.124V180H117.668ZM127.09 180V168.8H128.274V180H127.09ZM136.782 180.096C135.939 180.096 135.16 179.957 134.446 179.68C133.731 179.392 133.112 178.992 132.59 178.48C132.067 177.968 131.656 177.365 131.358 176.672C131.07 175.979 130.926 175.221 130.926 174.4C130.926 173.579 131.07 172.821 131.358 172.128C131.656 171.435 132.067 170.832 132.59 170.32C133.123 169.808 133.747 169.413 134.462 169.136C135.176 168.848 135.955 168.704 136.798 168.704C137.608 168.704 138.371 168.843 139.086 169.12C139.8 169.387 140.403 169.792 140.894 170.336L140.142 171.088C139.683 170.619 139.176 170.283 138.622 170.08C138.067 169.867 137.47 169.76 136.83 169.76C136.158 169.76 135.534 169.877 134.958 170.112C134.382 170.336 133.88 170.661 133.454 171.088C133.027 171.504 132.691 171.995 132.446 172.56C132.211 173.115 132.094 173.728 132.094 174.4C132.094 175.072 132.211 175.691 132.446 176.256C132.691 176.811 133.027 177.301 133.454 177.728C133.88 178.144 134.382 178.469 134.958 178.704C135.534 178.928 136.158 179.04 136.83 179.04C137.47 179.04 138.067 178.933 138.622 178.72C139.176 178.507 139.683 178.165 140.142 177.696L140.894 178.448C140.403 178.992 139.8 179.403 139.086 179.68C138.371 179.957 137.603 180.096 136.782 180.096Z" fill="#F3F3F3"/>
<path d="M7.368 381L3.592 369.8H4.808L8.344 380.344H7.736L11.384 369.8H12.472L16.072 380.344H15.496L19.064 369.8H20.2L16.424 381H15.176L11.736 371H12.056L8.6 381H7.368ZM30.5629 369.8H31.7309V381H30.5629V369.8ZM23.5549 381H22.3709V369.8H23.5549V381ZM30.6749 375.832H23.4269V374.792H30.6749V375.832ZM35.3865 381V369.8H36.5705V381H35.3865ZM42.3906 381V370.824H38.4546V369.8H47.5106V370.824H43.5746V381H42.3906ZM50.4581 374.808H56.3781V375.816H50.4581V374.808ZM50.5861 379.976H57.3221V381H49.4021V369.8H57.0821V370.824H50.5861V379.976ZM66.8368 381L63.0608 369.8H64.2768L67.8128 380.344H67.2048L70.8528 369.8H71.9408L75.5408 380.344H74.9648L78.5328 369.8H79.6688L75.8928 381H74.6448L71.2048 371H71.5248L68.0688 381H66.8368ZM81.8396 381V369.8H83.0236V381H81.8396ZM86.6678 381V369.8H87.6438L95.3718 379.528H94.8598V369.8H96.0278V381H95.0518L87.3398 371.272H87.8518V381H86.6678ZM100.739 374.808H106.659V375.816H100.739V374.808ZM100.867 379.976H107.603V381H99.6834V369.8H107.363V370.824H100.867V379.976Z" fill="#F3F3F3"/>
<path d="M26.88 560.224H32.8V561.248H26.88V560.224ZM27.008 566H25.824V554.8H33.504V555.824H27.008V566ZM35.949 566V554.8H40.141C41.0903 554.8 41.9063 554.955 42.589 555.264C43.2717 555.563 43.7943 556 44.157 556.576C44.5303 557.141 44.717 557.829 44.717 558.64C44.717 559.429 44.5303 560.112 44.157 560.688C43.7943 561.253 43.2717 561.691 42.589 562C41.9063 562.299 41.0903 562.448 40.141 562.448H36.605L37.133 561.904V566H35.949ZM43.597 566L40.717 561.936H41.997L44.893 566H43.597ZM37.133 562L36.605 561.44H40.109C41.229 561.44 42.077 561.195 42.653 560.704C43.2397 560.213 43.533 559.525 43.533 558.64C43.533 557.744 43.2397 557.051 42.653 556.56C42.077 556.069 41.229 555.824 40.109 555.824H36.605L37.133 555.264V562ZM48.5675 559.808H54.4875V560.816H48.5675V559.808ZM48.6955 564.976H55.4315V566H47.5115V554.8H55.1915V555.824H48.6955V564.976ZM61.3026 566.096C60.4706 566.096 59.6706 565.963 58.9026 565.696C58.1453 565.419 57.5586 565.067 57.1426 564.64L57.6066 563.728C58.0013 564.112 58.5293 564.437 59.1906 564.704C59.8626 564.96 60.5666 565.088 61.3026 565.088C62.0066 565.088 62.5773 565.003 63.0146 564.832C63.4626 564.651 63.788 564.411 63.9906 564.112C64.204 563.813 64.3106 563.483 64.3106 563.12C64.3106 562.683 64.1826 562.331 63.9266 562.064C63.6813 561.797 63.356 561.589 62.9506 561.44C62.5453 561.28 62.0973 561.141 61.6066 561.024C61.116 560.907 60.6253 560.784 60.1346 560.656C59.644 560.517 59.1906 560.336 58.7746 560.112C58.3693 559.888 58.0386 559.595 57.7826 559.232C57.5373 558.859 57.4146 558.373 57.4146 557.776C57.4146 557.221 57.5586 556.715 57.8466 556.256C58.1453 555.787 58.5986 555.413 59.2066 555.136C59.8146 554.848 60.5933 554.704 61.5426 554.704C62.172 554.704 62.796 554.795 63.4146 554.976C64.0333 555.147 64.5666 555.387 65.0146 555.696L64.6146 556.64C64.1346 556.32 63.6226 556.085 63.0786 555.936C62.5453 555.787 62.028 555.712 61.5266 555.712C60.8546 555.712 60.3 555.803 59.8626 555.984C59.4253 556.165 59.1 556.411 58.8866 556.72C58.684 557.019 58.5826 557.36 58.5826 557.744C58.5826 558.181 58.7053 558.533 58.9506 558.8C59.2066 559.067 59.5373 559.275 59.9426 559.424C60.3586 559.573 60.812 559.707 61.3026 559.824C61.7933 559.941 62.2786 560.069 62.7586 560.208C63.2493 560.347 63.6973 560.528 64.1026 560.752C64.5186 560.965 64.8493 561.253 65.0946 561.616C65.3506 561.979 65.4786 562.453 65.4786 563.04C65.4786 563.584 65.3293 564.091 65.0306 564.56C64.732 565.019 64.2733 565.392 63.6546 565.68C63.0466 565.957 62.2626 566.096 61.3026 566.096ZM76.2504 554.8H77.4184V566H76.2504V554.8ZM69.2424 566H68.0584V554.8H69.2424V566ZM76.3624 560.832H69.1144V559.792H76.3624V560.832ZM85.2615 566V554.8H90.0935C91.3415 554.8 92.3068 555.051 92.9895 555.552C93.6828 556.053 94.0295 556.763 94.0295 557.68C94.0295 558.288 93.8855 558.8 93.5975 559.216C93.3202 559.632 92.9362 559.947 92.4455 560.16C91.9655 560.373 91.4375 560.48 90.8615 560.48L91.1335 560.096C91.8482 560.096 92.4615 560.208 92.9735 560.432C93.4962 560.645 93.9015 560.971 94.1895 561.408C94.4775 561.835 94.6215 562.368 94.6215 563.008C94.6215 563.957 94.2695 564.693 93.5655 565.216C92.8722 565.739 91.8215 566 90.4135 566H85.2615ZM86.4455 565.024H90.3975C91.3788 565.024 92.1308 564.859 92.6535 564.528C93.1762 564.187 93.4375 563.648 93.4375 562.912C93.4375 562.187 93.1762 561.659 92.6535 561.328C92.1308 560.987 91.3788 560.816 90.3975 560.816H86.3175V559.84H90.0135C90.9095 559.84 91.6028 559.669 92.0935 559.328C92.5948 558.987 92.8455 558.48 92.8455 557.808C92.8455 557.125 92.5948 556.619 92.0935 556.288C91.6028 555.947 90.9095 555.776 90.0135 555.776H86.4455V565.024ZM95.532 566L100.652 554.8H101.82L106.94 566H105.692L100.988 555.488H101.468L96.764 566H95.532ZM97.548 563.008L97.9 562.048H104.412L104.764 563.008H97.548ZM111.881 566.096C111.049 566.096 110.249 565.963 109.481 565.696C108.723 565.419 108.137 565.067 107.721 564.64L108.185 563.728C108.579 564.112 109.107 564.437 109.769 564.704C110.441 564.96 111.145 565.088 111.881 565.088C112.585 565.088 113.155 565.003 113.593 564.832C114.041 564.651 114.366 564.411 114.569 564.112C114.782 563.813 114.889 563.483 114.889 563.12C114.889 562.683 114.761 562.331 114.505 562.064C114.259 561.797 113.934 561.589 113.529 561.44C113.123 561.28 112.675 561.141 112.185 561.024C111.694 560.907 111.203 560.784 110.713 560.656C110.222 560.517 109.769 560.336 109.353 560.112C108.947 559.888 108.617 559.595 108.361 559.232C108.115 558.859 107.993 558.373 107.993 557.776C107.993 557.221 108.137 556.715 108.425 556.256C108.723 555.787 109.177 555.413 109.785 555.136C110.393 554.848 111.171 554.704 112.121 554.704C112.75 554.704 113.374 554.795 113.993 554.976C114.611 555.147 115.145 555.387 115.593 555.696L115.193 556.64C114.713 556.32 114.201 556.085 113.657 555.936C113.123 555.787 112.606 555.712 112.105 555.712C111.433 555.712 110.878 555.803 110.441 555.984C110.003 556.165 109.678 556.411 109.465 556.72C109.262 557.019 109.161 557.36 109.161 557.744C109.161 558.181 109.283 558.533 109.529 558.8C109.785 559.067 110.115 559.275 110.521 559.424C110.937 559.573 111.39 559.707 111.881 559.824C112.371 559.941 112.857 560.069 113.337 560.208C113.827 560.347 114.275 560.528 114.681 560.752C115.097 560.965 115.427 561.253 115.673 561.616C115.929 561.979 116.057 562.453 116.057 563.04C116.057 563.584 115.907 564.091 115.609 564.56C115.31 565.019 114.851 565.392 114.233 565.68C113.625 565.957 112.841 566.096 111.881 566.096ZM118.637 566V554.8H119.821V566H118.637ZM123.465 566V554.8H124.649V564.976H130.921V566H123.465Z" fill="#F3F3F3"/>
</svg>
